<mxfile host="www.draw.io" modified="2020-04-12T16:06:11.289Z" agent="5.0 (Windows NT 10.0; Win64; x64) AppleWebKit/537.36 (KHTML, like Gecko) Chrome/80.0.3987.163 Safari/537.36" etag="vX9zasfXxxVkvtkX0ClN" version="12.9.11" type="github">
  <diagram id="xddAkhZl3PdWFMXTH9Rd" name="Page-1">
    <mxGraphModel dx="1108" dy="482" grid="1" gridSize="10" guides="1" tooltips="1" connect="1" arrows="1" fold="1" page="1" pageScale="1" pageWidth="850" pageHeight="1100" math="0" shadow="0">
      <root>
        <mxCell id="0" />
        <mxCell id="1" parent="0" />
        <mxCell id="AX6LZww4tyq9qnsnu7TR-7" value="" style="edgeStyle=orthogonalEdgeStyle;rounded=0;orthogonalLoop=1;jettySize=auto;html=1;" parent="1" source="AX6LZww4tyq9qnsnu7TR-1" edge="1">
          <mxGeometry relative="1" as="geometry">
            <mxPoint x="560" y="250" as="targetPoint" />
          </mxGeometry>
        </mxCell>
        <mxCell id="AX6LZww4tyq9qnsnu7TR-1" value="CRMZ-Bridge&lt;br&gt;Responsible for Step 1,Step 2 &amp;amp; Step 3" style="shape=process;whiteSpace=wrap;html=1;backgroundOutline=1;strokeColor=#ADADAD;fillColor=#BFBFBF;" parent="1" vertex="1">
          <mxGeometry x="360" y="220" width="140" height="60" as="geometry" />
        </mxCell>
        <mxCell id="AX6LZww4tyq9qnsnu7TR-4" value="" style="edgeStyle=orthogonalEdgeStyle;rounded=0;orthogonalLoop=1;jettySize=auto;html=1;" parent="1" source="AX6LZww4tyq9qnsnu7TR-3" target="AX6LZww4tyq9qnsnu7TR-1" edge="1">
          <mxGeometry relative="1" as="geometry" />
        </mxCell>
        <mxCell id="AX6LZww4tyq9qnsnu7TR-3" value="&lt;span&gt;Soft-Solver/DWH Database&lt;/span&gt;" style="shape=cylinder;whiteSpace=wrap;html=1;boundedLbl=1;backgroundOutline=1;fillColor=#FAFAFA;" parent="1" vertex="1">
          <mxGeometry x="180" y="210" width="140" height="80" as="geometry" />
        </mxCell>
        <mxCell id="AX6LZww4tyq9qnsnu7TR-5" value="CRMZ &lt;br&gt;Application" style="ellipse;whiteSpace=wrap;html=1;aspect=fixed;" parent="1" vertex="1">
          <mxGeometry x="560" y="200" width="110" height="110" as="geometry" />
        </mxCell>
      </root>
    </mxGraphModel>
  </diagram>
</mxfile>
